<?xml version="1.0" standalone="no"?>
<!DOCTYPE svg PUBLIC "-//W3C//DTD SVG 20010904//EN"
 "http://www.w3.org/TR/2001/REC-SVG-20010904/DTD/svg10.dtd">
<svg version="1.0" xmlns="http://www.w3.org/2000/svg"
 width="300.000000pt" height="308.000000pt" viewBox="0 0 300.000000 308.000000"
 preserveAspectRatio="xMidYMid meet">
<metadata>
Created by potrace 1.10, written by Peter Selinger 2001-2011
</metadata>
<g transform="translate(0.000000,308.000000) scale(0.100000,-0.100000)"
fill="#000000" stroke="none">
<path d="M2400 3044 c-145 -81 -240 -199 -290 -359 -17 -56 -21 -95 -21 -197
0 -135 9 -190 67 -423 61 -239 69 -316 68 -605 0 -230 -16 -355 -64 -515 -62
-205 -157 -372 -289 -508 -205 -211 -472 -321 -736 -304 -129 8 -282 52 -273
79 2 6 39 23 83 39 86 31 218 97 223 110 2 5 9 9 16 9 7 0 21 8 32 17 10 10
44 38 74 62 167 135 287 324 332 523 20 91 25 100 58 122 47 31 156 137 211
206 72 88 86 113 170 295 16 36 40 139 45 200 8 82 -17 194 -56 255 -67 104
-159 161 -293 179 -200 27 -502 -64 -747 -225 l-75 -49 -185 -1 c-241 0 -338
-24 -481 -117 -112 -72 -197 -173 -243 -290 -26 -66 -27 -76 -24 -215 3 -144
4 -148 37 -215 40 -80 144 -191 211 -225 75 -38 77 -40 85 -127 14 -158 75
-326 157 -433 27 -36 30 -45 18 -52 -20 -13 -264 -13 -331 0 -30 6 -73 19 -96
30 -52 24 -83 26 -83 4 0 -8 5 -12 10 -9 6 3 23 -3 39 -14 64 -46 266 -65 477
-46 l73 7 -54 65 c-106 128 -170 298 -178 468 l-4 85 -73 36 c-126 63 -229
192 -259 324 -16 67 -13 189 5 251 41 138 148 272 276 347 137 80 318 113 509
92 l108 -12 53 40 c78 57 203 127 288 161 459 182 768 91 806 -236 13 -119
-43 -302 -143 -461 -45 -73 -176 -214 -285 -308 -41 -34 -48 -46 -48 -76 0
-82 -73 -258 -155 -373 -52 -74 -171 -188 -255 -245 -86 -59 -228 -124 -335
-155 -49 -14 -94 -27 -100 -29 -16 -5 125 -72 205 -98 66 -20 94 -23 230 -22
138 1 165 4 241 27 121 37 189 68 288 134 296 198 485 546 532 981 13 129 7
489 -11 592 -6 36 -34 155 -61 265 -46 179 -52 215 -56 340 -5 123 -3 150 16
221 59 217 230 373 445 404 47 7 45 8 -34 9 -80 1 -89 -1 -150 -35z"/>
<path d="M2775 3070 c28 -4 61 -12 75 -18 52 -21 112 -74 131 -115 l19 -42 0
41 c0 33 -6 46 -32 70 -70 65 -90 74 -170 73 -72 -1 -72 -2 -23 -9z"/>
<path d="M2462 2941 c-99 -34 -181 -125 -224 -250 -19 -54 -23 -87 -23 -181 0
-159 13 -206 159 -604 50 -136 102 -338 122 -476 20 -137 14 -424 -10 -531
-74 -326 -269 -585 -556 -742 -137 -76 -301 -130 -441 -146 l-74 -8 108 -2
c130 -1 196 18 382 110 190 93 327 213 442 384 114 171 171 338 194 577 10
101 10 151 0 250 -23 221 -72 432 -146 623 -69 177 -126 358 -141 444 -63 373
166 622 476 516 80 -27 111 -45 150 -83 49 -48 120 -54 120 -10 0 17 -3 19
-12 10 -21 -21 -45 -13 -93 28 -26 22 -63 49 -83 59 -104 53 -251 66 -350 32z"/>
<path d="M1525 2144 c-151 -34 -343 -121 -478 -217 l-48 -34 85 -28 c274 -88
476 -326 520 -610 l12 -80 92 89 c202 195 316 409 316 596 1 62 -4 85 -27 132
-33 67 -91 120 -156 143 -66 24 -228 29 -316 9z m315 -45 c102 -48 150 -123
150 -232 0 -98 -16 -161 -70 -269 -55 -110 -99 -173 -195 -276 -77 -83 -84
-82 -104 3 -38 162 -137 322 -266 428 -59 49 -193 123 -254 142 l-25 8 24 19
c41 33 132 83 223 122 203 87 403 108 517 55z"/>
<path d="M541 1865 c-169 -37 -326 -156 -400 -302 -102 -204 -40 -455 143
-577 86 -57 81 -60 101 51 31 181 106 371 197 506 62 92 185 234 244 281 40
33 50 46 38 50 -29 11 -259 4 -323 -9z m239 -28 c0 -8 -12 -24 -26 -38 -43
-40 -158 -180 -204 -248 -60 -90 -123 -229 -159 -350 -17 -57 -31 -111 -31
-120 0 -9 -5 -33 -10 -53 l-11 -37 -35 21 c-57 34 -99 83 -139 164 -34 68 -37
82 -38 167 -2 112 18 174 89 277 45 66 72 90 155 140 99 61 198 87 327 89 62
1 82 -2 82 -12z"/>
<path d="M859 1763 c-187 -192 -278 -341 -348 -568 -25 -81 -61 -250 -61 -285
0 -4 28 -14 63 -21 94 -21 379 -18 487 5 161 35 360 117 503 208 77 49 76 47
52 183 -35 196 -176 383 -370 490 -37 20 -211 85 -229 85 -1 0 -45 -44 -97
-97z m241 15 c241 -95 429 -339 430 -559 l0 -65 -77 -46 c-88 -52 -255 -128
-323 -147 -25 -7 -58 -16 -75 -21 -93 -26 -164 -34 -315 -34 -185 -1 -250 11
-250 45 0 34 30 169 57 254 34 110 79 204 145 305 65 100 97 139 193 238 82
83 80 83 215 30z"/>
<path d="M1542 1037 c-18 -21 -203 -110 -305 -146 -232 -81 -563 -105 -766
-54 l-24 6 6 -84 c12 -162 66 -298 166 -416 67 -80 71 -80 216 -38 359 104
631 358 710 663 17 69 16 93 -3 69z m-39 -100 c-9 -39 -70 -161 -112 -223 -50
-75 -141 -162 -245 -233 -98 -68 -360 -171 -433 -171 -31 0 -116 100 -157 184
-38 80 -66 181 -69 253 l-2 48 50 -5 c117 -12 410 -4 497 13 104 21 284 81
388 130 41 19 78 33 81 31 4 -2 5 -14 2 -27z"/>
<path d="M0 249 c0 -27 79 -62 185 -84 86 -17 230 -18 377 -3 87 9 88 9 130
-20 57 -39 132 -76 226 -112 69 -27 87 -30 182 -29 l105 2 -70 8 c-145 17
-325 85 -437 165 -46 32 -48 33 -105 23 -32 -5 -114 -12 -183 -15 -150 -8
-265 10 -352 55 -55 28 -58 28 -58 10z"/>
</g>
</svg>
